<?xml version="1.0" encoding="utf-8"?>
<!-- Generator: Adobe Illustrator 24.0.0, SVG Export Plug-In . SVG Version: 6.00 Build 0)  -->
<svg version="1.1" id="Layer_1" xmlns="http://www.w3.org/2000/svg" xmlns:xlink="http://www.w3.org/1999/xlink" x="0px" y="0px"
	 viewBox="0 0 256 256" style="enable-background:new 0 0 256 256;" xml:space="preserve">
<style type="text/css">
	.st0{fill:#FFB69F;}
	.st1{fill:#72C2E9;}
	.st2{fill:#C2E5FF;}
	.st3{fill:#FC5D3D;}
	.st4{fill:#AFAFAF;}
	.st5{fill:#FFCBC3;}
	.st6{fill:#F0C020;}
	.st7{fill:#F8E5B0;}
	.st8{fill:#EFEFEF;}
	.st9{fill:#EEC21E;}
	.st10{fill:#FFFFFF;}
	.st11{fill:#F1BF21;}
	.st12{fill:#E8A61E;}
	.st13{fill:#7D7B79;}
	.st14{fill:#B34F33;}
	.st15{fill:#F8E5B2;}
	.st16{fill:#C5E5FE;}
	.st17{fill:#4C4944;}
	.st18{fill:#4BA5C8;}
	.st19{fill:#AFAEAF;}
	.st20{fill:#CF941C;}
	.st21{fill:#7C7B7A;}
	.st22{fill:#FAE0E1;}
	.st23{fill:#13BF6D;}
	.st24{fill:#76FFBB;}
	.st25{fill:#F2E1D7;}
	.st26{fill:#878787;}
	.st27{fill:#F9E5AF;}
	.st28{fill:#E8A61F;}
	.st29{fill:none;stroke:#000000;stroke-width:5;stroke-linecap:round;stroke-linejoin:round;stroke-miterlimit:10;}
	.st30{fill:#EFEFF0;}
	.st31{fill:#E8A61B;}
	.st32{fill:#EFEFEE;}
	.st33{fill:#4C4945;}
	.st34{fill:#EA8F7D;}
	.st35{fill:#D6C0B3;}
	.st36{fill:#EEC120;}
</style>
<g>
	<g>
		<path class="st25" d="M246.33,67.524v167.81c0,2.76-2.24,5-5,5H35c-10.88,0-20.15-6.86-23.74-16.48
			c-1.03-2.75-1.59-5.73-1.59-8.84c0-0.01,0-0.01,0-0.02c0.01-13.45,10.69-24.82,24.5-25.31c14.38-0.47,26.17,11.06,26.17,25.31
			V62.524h180.99C244.09,62.524,246.33,64.764,246.33,67.524z"/>
	</g>
	<g>
		<path class="st10" d="M233.332,229.837H95.143c-1.381,0-2.5-1.119-2.5-2.5s1.119-2.5,2.5-2.5h135.689V75.527
			c0-1.381,1.119-2.5,2.5-2.5s2.5,1.119,2.5,2.5v151.81C235.832,228.718,234.713,229.837,233.332,229.837z M85.143,229.837h-6.311
			c-1.381,0-2.5-1.119-2.5-2.5s1.119-2.5,2.5-2.5h6.311c1.381,0,2.5,1.119,2.5,2.5S86.523,229.837,85.143,229.837z"/>
	</g>
	<g>
		<path class="st35" d="M69.34,62.524v152.47c0,4.97-4.03,9-9,9c-4.97,0-9-4.03-9-9c0-9-7.33-16.33-16.34-16.33
			s-16.33,7.33-16.33,16.33c0,4.4-3.16,8.07-7.34,8.85c-0.02,0-0.04,0-0.07,0.01c-1.03-2.75-1.59-5.73-1.59-8.84
			c0-0.01,0-0.01,0-0.02V50.454c0-14,11.34-25.34,25.33-25.34s25.34,11.34,25.34,25.34v12.07H69.34z"/>
	</g>
	<g>
		<path class="st25" d="M60.34,50.454v164.54c0-14.25-11.79-25.78-26.17-25.31c-13.81,0.49-24.49,11.86-24.5,25.31V50.454
			c0-14,11.34-25.34,25.33-25.34S60.34,36.454,60.34,50.454z"/>
	</g>
	<g>
		<path class="st10" d="M46.532,181.07c-3.162-1.078-6.474-1.705-9.842-1.863c-1.38-0.065-2.445-1.235-2.38-2.615
			c0.064-1.379,1.267-2.44,2.614-2.379c2.681,0.126,5.331,0.513,7.914,1.153V50.457c0-1.381,1.119-2.5,2.5-2.5s2.5,1.119,2.5,2.5
			v128.247C49.839,180.432,48.135,181.618,46.532,181.07z M20.303,179.507c-0.445-1.307,0.254-2.728,1.561-3.172
			c1.46-0.497,2.967-0.915,4.478-1.243c1.34-0.292,2.68,0.563,2.973,1.914c0.292,1.35-0.564,2.681-1.914,2.973
			c-1.324,0.287-2.645,0.654-3.925,1.089C22.173,181.511,20.748,180.818,20.303,179.507z"/>
	</g>
	<g>
		<g>
			<polygon class="st3" points="216.35,149.962 207.02,159.302 153.33,105.612 110.71,148.242 99.65,159.302 90.32,149.962 
				153.33,86.952 			"/>
		</g>
		<g>
			<polygon class="st1" points="195.961,148.238 195.961,198.3 110.709,198.3 110.709,148.238 153.335,105.612 			"/>
		</g>
		<g>
			<path class="st16" d="M182.962,189.021c-1.381,0-2.5-1.119-2.5-2.5v-3.797c0-1.381,1.119-2.5,2.5-2.5s2.5,1.119,2.5,2.5v3.797
				C185.462,187.902,184.343,189.021,182.962,189.021z M182.962,175.225c-1.381,0-2.5-1.119-2.5-2.5v-18.066l-28.895-28.895
				c-0.977-0.976-0.977-2.559,0-3.535c0.977-0.977,2.559-0.977,3.535,0l29.627,29.626c0.469,0.469,0.732,1.104,0.732,1.768v19.102
				C185.462,174.105,184.343,175.225,182.962,175.225z"/>
		</g>
		<g>
			<path class="st8" d="M172.576,198.3h-38.482v-27.139c0-10.627,8.615-19.241,19.241-19.241c10.627,0,19.241,8.615,19.241,19.241
				V198.3z"/>
		</g>
	</g>
	<g>
		<g>
			<path class="st6" d="M98.284,198.297c-3.871-1.279-7.869-2.397-10.114-12.066c-2.067,8.906-5.38,10.502-10.114,12.066
				c7.722,2.551,8.887,6.776,10.114,12.066C90.286,201.244,93.786,199.783,98.284,198.297z"/>
		</g>
	</g>
	<g>
		<g>
			<path class="st6" d="M201.331,86.949c-3.871-1.279-7.869-2.397-10.114-12.066c-2.067,8.906-5.38,10.502-10.114,12.066
				c7.722,2.551,8.887,6.776,10.114,12.066C193.332,89.896,196.832,88.435,201.331,86.949z"/>
		</g>
	</g>
	<g>
		<g>
			<path class="st6" d="M224.153,105.97c-3.871-1.279-7.869-2.397-10.114-12.066c-2.067,8.906-5.38,10.502-10.114,12.066
				c7.722,2.551,8.887,6.776,10.114,12.066C216.155,108.917,219.655,107.456,224.153,105.97z"/>
		</g>
	</g>
	<g>
		<g>
			
				<rect x="140.339" y="-8.219" transform="matrix(-1.836970e-16 1 -1 -1.836970e-16 186.0034 -124.6691)" class="st1" width="29.994" height="77.773"/>
		</g>
		<g>
			<polygon class="st36" points="116.451,45.664 104.122,39.125 88.17,30.665 104.122,22.205 116.451,15.666 			"/>
		</g>
		<g>
			<path class="st3" d="M218.5,30.667c0-8.283-6.714-14.997-14.997-14.997h-9.281v29.994h9.281
				C211.786,45.664,218.5,38.95,218.5,30.667z"/>
		</g>
		<g>
			<polygon class="st26" points="104.122,39.125 88.17,30.665 104.122,22.205 			"/>
		</g>
		<g>
			<path d="M195.85,129.47c-1.003,1.025-0.944,2.596,0,3.54c0.943,0.944,2.516,1.004,3.54,0c0.934-0.934,1.015-2.503,0-3.54
				C198.439,128.53,196.8,128.53,195.85,129.47z"/>
			<path d="M110.709,200.8h85.252c1.381,0,2.5-1.119,2.5-2.5v-44.02l6.789,6.789c0.931,0.932,2.502,1.016,3.54,0l9.33-9.34
				c0.966-0.967,0.984-2.568-0.011-3.54l-11.649-11.64c-0.94-0.95-2.59-0.95-3.54,0c-0.97,0.97-0.97,2.56,0.01,3.53l9.88,9.88
				l-5.79,5.81l-51.92-51.93c-0.943-0.933-2.594-0.945-3.54,0l-51.91,51.92l-5.79-5.79l59.471-59.48l35.45,35.45
				c0.949,0.94,2.59,0.94,3.529,0c0.948-0.928,1.028-2.513,0-3.54L155.1,85.18c-0.95-0.94-2.6-0.94-3.54,0l-63.01,63.01
				c-0.968,0.989-0.976,2.542,0,3.54l9.33,9.34c0.939,0.94,2.59,0.95,3.54,0l6.789-6.79V198.3
				C108.209,199.681,109.328,200.8,110.709,200.8z M155.835,154.633c8.031,1.228,14.227,8.167,14.245,16.527v24.64h-14.245V154.633z
				 M193.461,195.8H175.08V171.16c-0.013-14.609-14.251-25.15-28.261-20.75c-1.287,0.403-2.063,1.787-1.64,3.14
				c0.41,1.29,1.83,2.04,3.14,1.63c0.823-0.254,1.663-0.444,2.516-0.572V195.8H136.59v-24.64c0-1.27,0.15-2.54,0.43-3.78
				c0.311-1.34-0.529-2.68-1.87-2.99c-1.34-0.31-2.699,0.54-3,1.87c-0.369,1.6-0.56,3.25-0.56,4.9V195.8h-18.381v-46.522
				l40.122-40.127l40.13,40.13V195.8z"/>
			<path d="M137.38,156.39c-0.93,1.01-0.87,2.59,0.14,3.53c0.46,0.43,1.061,0.67,1.69,0.67c0.7,0,1.37-0.29,1.84-0.8
				c0.94-1.01,0.88-2.6-0.13-3.54C139.939,155.35,138.28,155.42,137.38,156.39z"/>
			<path d="M90.702,185.643c-0.62-2.675-4.445-2.668-5.064,0c-1.864,8.027-4.463,8.886-8.397,10.187
				c-2.369,0.782-2.375,4.152,0,4.937c6.535,2.159,7.276,5.352,8.397,10.185c0.623,2.681,4.442,2.68,5.065,0
				c1.862-8.027,4.603-8.932,8.397-10.185c2.369-0.783,2.375-4.153,0-4.937C95.455,194.628,92.608,193.852,90.702,185.643z
				 M88.222,202.66c-0.92-1.552-2.199-3.02-4.07-4.303c1.513-1.038,2.868-2.447,4.028-4.533c1.173,2.112,2.508,3.51,3.888,4.497
				C90.628,199.332,89.337,200.689,88.222,202.66z"/>
			<path d="M202.146,84.48c-3.645-1.2-6.491-1.977-8.397-10.186c-0.62-2.675-4.445-2.668-5.064,0
				c-1.864,8.027-4.463,8.886-8.397,10.187c-2.369,0.782-2.375,4.152,0,4.937c6.535,2.159,7.276,5.352,8.397,10.185
				c0.623,2.681,4.442,2.68,5.065,0c1.862-8.027,4.603-8.932,8.397-10.185C204.515,88.634,204.521,85.264,202.146,84.48z
				 M191.269,91.311c-0.92-1.552-2.199-3.02-4.07-4.303c1.513-1.038,2.868-2.447,4.028-4.533c1.173,2.112,2.508,3.51,3.887,4.497
				C193.675,87.984,192.384,89.34,191.269,91.311z"/>
			<path d="M203.11,108.438c6.535,2.159,7.276,5.352,8.397,10.185c0.623,2.681,4.442,2.68,5.065,0
				c1.862-8.027,4.603-8.932,8.397-10.185c2.369-0.783,2.375-4.153,0-4.937c-3.645-1.2-6.491-1.977-8.397-10.186
				c-0.62-2.675-4.445-2.668-5.064,0c-1.864,8.027-4.463,8.886-8.397,10.187C200.74,104.284,200.735,107.654,203.11,108.438z
				 M214.049,101.496c1.173,2.112,2.508,3.51,3.888,4.497c-1.439,1.011-2.731,2.368-3.846,4.339c-0.92-1.552-2.199-3.02-4.07-4.303
				C211.534,104.991,212.889,103.582,214.049,101.496z"/>
			<path d="M241.33,60.02H62.84v-9.57c0-15.241-12.33-27.84-27.84-27.84c-15.308,0-27.83,12.38-27.83,27.84v78.66
				c0,1.38,1.12,2.5,2.5,2.5s2.5-1.12,2.5-2.5V50.45C12.189,37.88,22.43,27.64,35,27.61c12.569,0.03,22.819,10.27,22.84,22.84
				c0,5.459,0,141.644,0,148.63c-5.296-7.584-14.131-12.204-23.771-11.9c-8.799,0.333-16.882,4.743-21.899,11.95v-50.02
				c0-1.37-1.12-2.49-2.5-2.49s-2.5,1.12-2.5,2.49v65.88V215v0.01c0,15.314,12.402,27.82,27.83,27.82h122c1.37,0,2.5-1.12,2.5-2.5
				c0-1.38-1.13-2.5-2.5-2.5H35c-9.48,0-18.08-5.97-21.4-14.85c-0.95-2.54-1.43-5.22-1.43-7.97v-0.02
				c0.01-12.35,9.71-22.37,22.09-22.81c12.572-0.491,23.549,9.773,23.58,22.81c0,1.381,1.111,2.5,2.5,2.5c1.369,0,2.5-1.097,2.5-2.5
				V65.02h178.49c1.37,0.01,2.5,1.13,2.5,2.5v167.81c0,1.38-1.13,2.5-2.5,2.5H177c-1.38,0-2.5,1.12-2.5,2.5c0,1.38,1.12,2.5,2.5,2.5
				h64.33c4.13,0,7.5-3.36,7.5-7.5V67.52C248.83,63.39,245.46,60.02,241.33,60.02z"/>
			<path d="M167,237.83c-1.38,0-2.5,1.12-2.5,2.5c0,1.38,1.12,2.5,2.5,2.5c1.37,0,2.49-1.12,2.49-2.5
				C169.49,238.95,168.37,237.83,167,237.83z"/>
			<circle cx="9.67" cy="139.11" r="2.5"/>
			<circle cx="157.22" cy="30.67" r="2.5"/>
			<path d="M87,32.87l28.28,15c0.282,0.15,0.776,0.29,1.17,0.29c10.554,0,77.221,0,87.05,0c9.649,0,17.5-7.85,17.5-17.49
				c0-9.65-7.851-17.5-17.5-17.5c-9.829,0-76.496,0-87.05,0c-0.412,0-0.875,0.131-1.17,0.29L87,28.46
				C85.222,29.391,85.236,31.945,87,32.87z M216,30.67c-0.01,6.88-5.62,12.48-12.5,12.49h-6.78V18.17h6.78
				C210.38,18.18,215.99,23.79,216,30.67z M191.72,28.17h-24.5c-1.38,0-2.5,1.12-2.5,2.5c0,1.37,1.12,2.5,2.5,2.5h24.5v9.99h-72.77
				v-9.99h28.27c1.38,0,2.5-1.13,2.5-2.5c0-1.38-1.12-2.5-2.5-2.5h-28.27v-10h72.77V28.17z M113.95,41.51l-7.33-3.891V23.707
				l7.33-3.887V41.51z M101.62,26.359v8.606l-8.11-4.305L101.62,26.359z"/>
		</g>
	</g>
</g>
</svg>
